<?xml version="1.0" encoding="UTF-8" standalone="no"?>
<svg
   width="512"
   height="484.73065"
   viewBox="0 0 512 484.73065"
   fill="none"
   version="1.1"
   id="svg41"
   sodipodi:docname="Outlook-Icon-FY26.svg"
   inkscape:version="1.4.2 (f4327f4, 2025-05-13)"
   xmlns:inkscape="http://www.inkscape.org/namespaces/inkscape"
   xmlns:sodipodi="http://sodipodi.sourceforge.net/DTD/sodipodi-0.dtd"
   xmlns="http://www.w3.org/2000/svg"
   xmlns:svg="http://www.w3.org/2000/svg">
  <sodipodi:namedview
     id="namedview41"
     pagecolor="#ffffff"
     bordercolor="#111111"
     borderopacity="1"
     inkscape:showpageshadow="0"
     inkscape:pageopacity="0"
     inkscape:pagecheckerboard="1"
     inkscape:deskcolor="#d1d1d1"
     inkscape:zoom="0.71171034"
     inkscape:cx="19.670924"
     inkscape:cy="17.563325"
     inkscape:window-width="1920"
     inkscape:window-height="991"
     inkscape:window-x="-9"
     inkscape:window-y="-9"
     inkscape:window-maximized="1"
     inkscape:current-layer="svg41" />
  <path
     d="M 362.87787,44.672002 53.570034,240.73172 26.969742,198.76636 v -36.16087 c 0,-13.1652 6.665332,-25.43575 17.709634,-32.60245 L 224.48084,13.333261 c 27.3935,-17.7751164 62.67857,-17.7779459 90.07475,-0.0069 z"
     fill="url(#paint0_linear_76780_14576)"
     id="path1"
     style="fill:url(#paint0_linear_76780_14576);stroke-width:13.4738" />
  <path
     d="m 311.78539,11.610237 c 0.92969,0.553098 1.85264,1.125867 2.76616,1.718443 L 454.87397,104.35171 106.94793,324.89014 53.557907,240.66165 308.902,78.494227 c 24.18674,-15.360081 25.24578,-49.914739 2.88339,-66.88399 z"
     fill="url(#paint1_linear_76780_14576)"
     id="path2"
     style="fill:url(#paint1_linear_76780_14576);stroke-width:13.4738" />
  <path
     d="m 311.78539,11.610237 c 0.92969,0.553098 1.85264,1.125867 2.76616,1.718443 L 454.87397,104.35171 106.94793,324.89014 53.557907,240.66165 308.902,78.494227 c 24.18674,-15.360081 25.24578,-49.914739 2.88339,-66.88399 z"
     fill="url(#paint2_linear_76780_14576)"
     fill-opacity="0.2"
     id="path3"
     style="fill:url(#paint2_linear_76780_14576);stroke-width:13.4738" />
  <path
     d="M 245.76399,367.00236 106.95063,324.89283 402.0838,137.81109 c 24.85638,-15.75487 24.79171,-52.042383 -0.11992,-67.709665 l -1.32986,-0.835373 3.8279,2.380812 89.82279,58.265906 C 505.33184,137.07947 512,149.35136 512,162.51926 v 34.99808 z"
     fill="url(#paint3_linear_76780_14576)"
     id="path4"
     style="fill:url(#paint3_linear_76780_14576);stroke-width:13.4738" />
  <path
     d="M 245.76399,367.00236 106.95063,324.89283 402.0838,137.81109 c 24.85638,-15.75487 24.79171,-52.042383 -0.11992,-67.709665 l -1.32986,-0.835373 3.8279,2.380812 89.82279,58.265906 C 505.33184,137.07947 512,149.35136 512,162.51926 v 34.99808 z"
     fill="url(#paint4_linear_76780_14576)"
     fill-opacity="0.2"
     id="path5"
     style="fill:url(#paint4_linear_76780_14576);stroke-width:13.4738" />
  <path
     d="M 314.55559,13.326389 C 287.15941,-4.4446849 251.87434,-4.4418554 224.4795,13.333261 L 44.679376,130.00304 c -11.044302,7.1667 -17.709634,19.43725 -17.709634,32.60245 v 1.76911 c 0.433451,13.21506 7.388603,25.39668 18.621807,32.47983 L 269.15712,337.79934 493.28495,197.06866 c 11.63998,-7.30951 18.70427,-20.08802 18.70427,-33.83259 v 34.28531 l 0.005,-35.00077 c 0,-13.1679 -6.66816,-25.4398 -17.71529,-32.60649 z"
     fill="url(#paint5_radial_76780_14576)"
     id="path6"
     style="fill:url(#paint5_radial_76780_14576);stroke-width:13.4738" />
  <path
     d="m 229.74504,484.73064 h 198.01974 c 46.50871,0 84.21097,-37.70226 84.21097,-84.21097 V 163.23472 c 0,13.74458 -7.06564,26.52309 -18.70427,33.8326 L 198.73115,382.01078 c -15.88825,9.97596 -25.53142,27.42043 -25.53007,46.18129 0.003,31.22543 25.31719,56.53857 56.54396,56.53857 z"
     fill="url(#paint6_linear_76780_14576)"
     id="path7"
     style="fill:url(#paint6_linear_76780_14576);stroke-width:13.4738" />
  <path
     d="m 229.74504,484.73064 h 198.01974 c 46.50871,0 84.21097,-37.70226 84.21097,-84.21097 V 163.23472 c 0,13.74458 -7.06564,26.52309 -18.70427,33.8326 L 198.73115,382.01078 c -15.88825,9.97596 -25.53142,27.42043 -25.53007,46.18129 0.003,31.22543 25.31719,56.53857 56.54396,56.53857 z"
     fill="url(#paint7_radial_76780_14576)"
     fill-opacity="0.4"
     id="path8"
     style="fill:url(#paint7_radial_76780_14576);stroke-width:13.4738" />
  <path
     d="m 229.74504,484.73064 h 198.01974 c 46.50871,0 84.21097,-37.70226 84.21097,-84.21097 V 163.23472 c 0,13.74458 -7.06564,26.52309 -18.70427,33.8326 L 198.73115,382.01078 c -15.88825,9.97596 -25.53142,27.42043 -25.53007,46.18129 0.003,31.22543 25.31719,56.53857 56.54396,56.53857 z"
     fill="url(#paint8_radial_76780_14576)"
     fill-opacity="0.5"
     id="path9"
     style="fill:url(#paint8_radial_76780_14576);stroke-width:13.4738" />
  <path
     d="M 310.25746,484.71447 H 111.1477 c -46.508033,0 -84.210565,-37.70226 -84.210565,-84.21097 V 163.06091 c 0,13.71763 7.03896,26.47727 18.643501,33.79217 L 339.82831,382.36109 c 16.10923,10.15517 25.88039,27.86777 25.8777,46.91023 -0.003,30.6218 -24.82674,55.44315 -55.44855,55.44315 z"
     fill="url(#paint9_radial_76780_14576)"
     id="path10"
     style="fill:url(#paint9_radial_76780_14576);stroke-width:13.4738" />
  <path
     d="M 310.25746,484.71447 H 111.1477 c -46.508033,0 -84.210565,-37.70226 -84.210565,-84.21097 V 163.06091 c 0,13.71763 7.03896,26.47727 18.643501,33.79217 L 339.82831,382.36109 c 16.10923,10.15517 25.88039,27.86777 25.8777,46.91023 -0.003,30.6218 -24.82674,55.44315 -55.44855,55.44315 z"
     fill="url(#paint10_linear_76780_14576)"
     id="path11"
     style="fill:url(#paint10_linear_76780_14576);stroke-width:13.4738" />
  <rect
     x="0"
     y="228.68213"
     width="215.58008"
     height="215.58008"
     rx="43.789703"
     fill="url(#paint11_radial_76780_14576)"
     id="rect11"
     style="fill:url(#paint11_radial_76780_14576);stroke-width:13.4738" />
  <rect
     x="0"
     y="228.68213"
     width="215.58008"
     height="215.58008"
     rx="43.789703"
     fill="url(#paint12_radial_76780_14576)"
     fill-opacity="0.5"
     id="rect12"
     style="fill:url(#paint12_radial_76780_14576);stroke-width:13.4738" />
  <path
     d="m 107.23762,398.4501 c -17.825781,0 -32.459087,-5.57678 -43.901674,-16.72901 -11.442587,-11.15223 -17.163812,-25.70523 -17.163812,-43.66036 0,-18.96026 5.807592,-34.29475 17.422643,-46.00479 11.61505,-11.70869 26.823552,-17.56438 45.626173,-17.56438 17.76784,0 32.22923,5.60373 43.38415,16.81255 11.21286,11.20747 16.81929,25.98414 16.81929,44.33 0,18.84844 -5.80854,34.04279 -17.42292,45.58576 -11.55778,11.48637 -26.47862,17.23023 -44.76385,17.23023 z m 0.51739,-23.67069 c 9.71727,0 17.53744,-3.31859 23.4605,-9.95306 5.92172,-6.63583 8.88325,-15.86535 8.88325,-27.68587 0,-12.32445 -2.8753,-21.91507 -8.62455,-28.77321 -5.7506,-6.85949 -13.4266,-10.28856 -23.02934,-10.28856 -9.889741,0 -17.854077,3.54091 -23.891667,10.62271 -6.037186,7.02656 -9.05598,16.33828 -9.05598,27.93648 0,11.76664 3.018794,21.07835 9.05598,27.93649 6.03759,6.8029 13.771525,10.20502 23.201807,10.20502 z"
     fill="#ffffff"
     id="path12"
     style="stroke-width:13.4738" />
  <path
     d="m 107.18911,400.11277 c -17.75706,0 -32.335529,-5.7277 -43.73446,-17.18308 -11.398797,-11.45674 -17.09833,-26.40722 -17.09833,-44.85144 0,-19.47631 5.785361,-35.22848 17.356217,-47.2565 11.570722,-12.02937 26.72196,-18.04405 45.451823,-18.04405 17.70048,0 32.10662,5.75733 43.21977,17.27065 11.16974,11.51333 16.75461,26.69286 16.75461,45.5386 0,19.36044 -5.78563,34.96979 -17.35689,46.82669 -11.51332,11.80032 -26.37757,17.69913 -44.59274,17.69913 z m 0.5147,-24.31474 c 9.68089,0 17.47142,-3.40886 23.37157,-10.22524 5.90016,-6.81637 8.84957,-16.2965 8.84957,-28.4404 0,-12.65859 -2.86452,-22.5106 -8.59222,-29.55603 -5.72769,-7.04542 -13.37539,-10.56881 -22.94041,-10.56881 -9.853359,0 -17.786706,3.63791 -23.801391,10.91239 -6.01401,7.21655 -9.021352,16.78291 -9.021352,28.69775 0,12.08596 3.007342,21.65233 9.021352,28.69776 6.014685,6.98748 13.718978,10.48258 23.112881,10.48258 z"
     fill="#ffffff"
     id="path13"
     style="stroke-width:13.4738" />
  <defs
     id="defs41">
    <linearGradient
       id="paint0_linear_76780_14576"
       x1="9.9890804"
       y1="22.364901"
       x2="30.932199"
       y2="9.3749504"
       gradientUnits="userSpaceOnUse"
       gradientTransform="matrix(13.473755,0,0,13.473755,-53.89502,-81.214234)">
      <stop
         stop-color="#20A7FA"
         id="stop13" />
      <stop
         offset="0.4"
         stop-color="#3BD5FF"
         id="stop14" />
      <stop
         offset="1"
         stop-color="#C4B0FF"
         id="stop15" />
    </linearGradient>
    <linearGradient
       id="paint1_linear_76780_14576"
       x1="17.197201"
       y1="26.7945"
       x2="28.856199"
       y2="8.1257496"
       gradientUnits="userSpaceOnUse"
       gradientTransform="matrix(13.473755,0,0,13.473755,-53.89502,-81.214234)">
      <stop
         stop-color="#165AD9"
         id="stop16" />
      <stop
         offset="0.5008"
         stop-color="#1880E5"
         id="stop17" />
      <stop
         offset="1"
         stop-color="#8587FF"
         id="stop18" />
    </linearGradient>
    <linearGradient
       id="paint2_linear_76780_14576"
       x1="25.7005"
       y1="27.048401"
       x2="12.7563"
       y2="16.501301"
       gradientUnits="userSpaceOnUse"
       gradientTransform="matrix(13.473755,0,0,13.473755,-53.89502,-81.214234)">
      <stop
         offset="0.236946"
         stop-color="#448AFF"
         stop-opacity="0"
         id="stop19" />
      <stop
         offset="0.792113"
         stop-color="#0032B1"
         id="stop20" />
    </linearGradient>
    <linearGradient
       id="paint3_linear_76780_14576"
       x1="24.0534"
       y1="31.1099"
       x2="44.509998"
       y2="18.0177"
       gradientUnits="userSpaceOnUse"
       gradientTransform="matrix(13.473755,0,0,13.473755,-53.89502,-81.214234)">
      <stop
         stop-color="#1A43A6"
         id="stop21" />
      <stop
         offset="0.492267"
         stop-color="#2052CB"
         id="stop22" />
      <stop
         offset="1"
         stop-color="#5F20CB"
         id="stop23" />
    </linearGradient>
    <linearGradient
       id="paint4_linear_76780_14576"
       x1="29.8281"
       y1="30.327299"
       x2="17.397499"
       y2="19.570801"
       gradientUnits="userSpaceOnUse"
       gradientTransform="matrix(13.473755,0,0,13.473755,-53.89502,-81.214234)">
      <stop
         stop-color="#0045B9"
         stop-opacity="0"
         id="stop24" />
      <stop
         offset="0.669859"
         stop-color="#0D1F69"
         id="stop25" />
    </linearGradient>
    <radialGradient
       id="paint5_radial_76780_14576"
       cx="0"
       cy="0"
       r="1"
       gradientUnits="userSpaceOnUse"
       gradientTransform="matrix(0,-363.82776,393.78666,0,269.49935,10.648211)">
      <stop
         offset="0.568182"
         stop-color="#275FF0"
         stop-opacity="0"
         id="stop26" />
      <stop
         offset="0.992424"
         stop-color="#002177"
         id="stop27" />
    </radialGradient>
    <linearGradient
       id="paint6_linear_76780_14576"
       x1="41.998001"
       y1="29.9431"
       x2="23.8517"
       y2="29.9431"
       gradientUnits="userSpaceOnUse"
       gradientTransform="matrix(13.473755,0,0,13.473755,-53.89502,-81.214234)">
      <stop
         stop-color="#4DC4FF"
         id="stop28" />
      <stop
         offset="0.196145"
         stop-color="#0FAFFF"
         id="stop29" />
    </linearGradient>
    <radialGradient
       id="paint7_radial_76780_14576"
       cx="0"
       cy="0"
       r="1"
       gradientUnits="userSpaceOnUse"
       gradientTransform="matrix(110.25088,-110.25088,110.25088,110.25088,324.62048,429.59873)">
      <stop
         offset="0.259477"
         stop-color="#0060D1"
         id="stop30" />
      <stop
         offset="0.908166"
         stop-color="#0383F1"
         stop-opacity="0"
         id="stop31" />
    </radialGradient>
    <radialGradient
       id="paint8_radial_76780_14576"
       cx="0"
       cy="0"
       r="1"
       gradientUnits="userSpaceOnUse"
       gradientTransform="matrix(321.04098,-420.78173,380.49395,290.3029,89.349859,544.93811)">
      <stop
         offset="0.732317"
         stop-color="#F4A7F7"
         stop-opacity="0"
         id="stop32" />
      <stop
         offset="1"
         stop-color="#F4A7F7"
         id="stop33" />
    </radialGradient>
    <radialGradient
       id="paint9_radial_76780_14576"
       cx="0"
       cy="0"
       r="1"
       gradientUnits="userSpaceOnUse"
       gradientTransform="matrix(-153.47585,233.29843,-605.437,-398.28796,196.32339,289.74384)">
      <stop
         stop-color="#49DEFF"
         id="stop34" />
      <stop
         offset="0.724349"
         stop-color="#29C3FF"
         id="stop35" />
    </radialGradient>
    <linearGradient
       id="paint10_linear_76780_14576"
       x1="3.4575601"
       y1="37.872299"
       x2="20.9291"
       y2="37.859699"
       gradientUnits="userSpaceOnUse"
       gradientTransform="matrix(13.473755,0,0,13.473755,-53.89502,-81.214234)">
      <stop
         offset="0.205882"
         stop-color="#6CE0FF"
         id="stop36" />
      <stop
         offset="0.535"
         stop-color="#50D5FF"
         stop-opacity="0"
         id="stop37" />
    </linearGradient>
    <radialGradient
       id="paint11_radial_76780_14576"
       cx="0"
       cy="0"
       r="1"
       gradientUnits="userSpaceOnUse"
       gradientTransform="matrix(193.81295,207.28845,-207.28845,193.81295,-0.76921667,236.97388)">
      <stop
         offset="0.038877"
         stop-color="#0091FF"
         id="stop38" />
      <stop
         offset="0.919119"
         stop-color="#183DAD"
         id="stop39" />
    </radialGradient>
    <radialGradient
       id="paint12_radial_76780_14576"
       cx="0"
       cy="0"
       r="1"
       gradientUnits="userSpaceOnUse"
       gradientTransform="matrix(0,150.90606,-174.06475,0,107.79004,359.96906)">
      <stop
         offset="0.557796"
         stop-color="#0FA5F7"
         stop-opacity="0"
         id="stop40" />
      <stop
         offset="1"
         stop-color="#74C6FF"
         id="stop41" />
    </radialGradient>
  </defs>
</svg>
